%TF.GenerationSoftware,KiCad,Pcbnew,8.0.1*%
%TF.CreationDate,2025-04-21T12:55:39-06:00*%
%TF.ProjectId,Project,50726f6a-6563-4742-9e6b-696361645f70,A*%
%TF.SameCoordinates,Original*%
%TF.FileFunction,Soldermask,Top*%
%TF.FilePolarity,Negative*%
%FSLAX46Y46*%
G04 Gerber Fmt 4.6, Leading zero omitted, Abs format (unit mm)*
G04 Created by KiCad (PCBNEW 8.0.1) date 2025-04-21 12:55:39*
%MOMM*%
%LPD*%
G01*
G04 APERTURE LIST*
G04 Aperture macros list*
%AMRoundRect*
0 Rectangle with rounded corners*
0 $1 Rounding radius*
0 $2 $3 $4 $5 $6 $7 $8 $9 X,Y pos of 4 corners*
0 Add a 4 corners polygon primitive as box body*
4,1,4,$2,$3,$4,$5,$6,$7,$8,$9,$2,$3,0*
0 Add four circle primitives for the rounded corners*
1,1,$1+$1,$2,$3*
1,1,$1+$1,$4,$5*
1,1,$1+$1,$6,$7*
1,1,$1+$1,$8,$9*
0 Add four rect primitives between the rounded corners*
20,1,$1+$1,$2,$3,$4,$5,0*
20,1,$1+$1,$4,$5,$6,$7,0*
20,1,$1+$1,$6,$7,$8,$9,0*
20,1,$1+$1,$8,$9,$2,$3,0*%
G04 Aperture macros list end*
%ADD10R,1.500000X2.000000*%
%ADD11R,3.800000X2.000000*%
%ADD12R,1.700000X1.700000*%
%ADD13O,1.700000X1.700000*%
%ADD14RoundRect,0.250000X-0.325000X-0.450000X0.325000X-0.450000X0.325000X0.450000X-0.325000X0.450000X0*%
%ADD15RoundRect,0.250000X-0.337500X-0.475000X0.337500X-0.475000X0.337500X0.475000X-0.337500X0.475000X0*%
%ADD16RoundRect,0.250000X-0.350000X-0.450000X0.350000X-0.450000X0.350000X0.450000X-0.350000X0.450000X0*%
%ADD17C,1.700000*%
%ADD18C,1.778000*%
%ADD19RoundRect,0.250000X0.337500X0.475000X-0.337500X0.475000X-0.337500X-0.475000X0.337500X-0.475000X0*%
%ADD20RoundRect,0.250000X0.450000X-0.325000X0.450000X0.325000X-0.450000X0.325000X-0.450000X-0.325000X0*%
%ADD21C,1.524000*%
%ADD22RoundRect,0.250000X0.450000X-0.350000X0.450000X0.350000X-0.450000X0.350000X-0.450000X-0.350000X0*%
%ADD23C,7.112000*%
%ADD24R,1.778000X1.778000*%
%ADD25R,0.430000X2.350000*%
%ADD26RoundRect,0.250000X-0.475000X0.337500X-0.475000X-0.337500X0.475000X-0.337500X0.475000X0.337500X0*%
%ADD27C,1.400000*%
%ADD28R,3.500000X3.500000*%
%ADD29C,3.500000*%
%ADD30RoundRect,0.250000X-0.400000X-0.625000X0.400000X-0.625000X0.400000X0.625000X-0.400000X0.625000X0*%
G04 APERTURE END LIST*
D10*
%TO.C,Q2*%
X150270000Y-74070000D03*
D11*
X152570000Y-67770000D03*
D10*
X152570000Y-74070000D03*
X154870000Y-74070000D03*
%TD*%
D12*
%TO.C,J2*%
X146730300Y-49560100D03*
D13*
X144190300Y-49560100D03*
X141650300Y-49560100D03*
X139110300Y-49560100D03*
X136570300Y-49560100D03*
%TD*%
D14*
%TO.C,D1*%
X185235200Y-68831200D03*
X187285200Y-68831200D03*
%TD*%
D15*
%TO.C,C4*%
X178851200Y-51559200D03*
X180926200Y-51559200D03*
%TD*%
D16*
%TO.C,R13*%
X157160300Y-74071100D03*
X159160300Y-74071100D03*
%TD*%
D14*
%TO.C,D5*%
X90366200Y-52956200D03*
X92416200Y-52956200D03*
%TD*%
D12*
%TO.C,U3*%
X110314200Y-66926200D03*
D13*
X107774200Y-66926200D03*
X105234200Y-66926200D03*
X102694200Y-66926200D03*
X100154200Y-66926200D03*
X97614200Y-66926200D03*
X95074200Y-66926200D03*
X92534200Y-66926200D03*
X89994200Y-66926200D03*
X87454200Y-66926200D03*
X84914200Y-66926200D03*
X82374200Y-66926200D03*
X79834200Y-66926200D03*
X77294200Y-66926200D03*
X77294200Y-87246200D03*
X79834200Y-87246200D03*
X82374200Y-87246200D03*
X84914200Y-87246200D03*
X87454200Y-87246200D03*
X89994200Y-87246200D03*
X92534200Y-87246200D03*
X95074200Y-87246200D03*
X97614200Y-87246200D03*
X100154200Y-87246200D03*
X102694200Y-87246200D03*
X105234200Y-87246200D03*
X107774200Y-87246200D03*
D17*
X110314200Y-87246200D03*
%TD*%
D14*
%TO.C,D3*%
X185242200Y-66164200D03*
X187292200Y-66164200D03*
%TD*%
D12*
%TO.C,J4*%
X139397200Y-57198000D03*
D13*
X141937200Y-57198000D03*
X144477200Y-57198000D03*
X147017200Y-57198000D03*
X149557200Y-57198000D03*
X152097200Y-57198000D03*
X154637200Y-57198000D03*
X157177200Y-57198000D03*
X159717200Y-57198000D03*
X162257200Y-57198000D03*
X164797200Y-57198000D03*
%TD*%
D12*
%TO.C,J1*%
X147525200Y-86611200D03*
D13*
X144985200Y-86611200D03*
X142445200Y-86611200D03*
X139905200Y-86611200D03*
X137365200Y-86611200D03*
%TD*%
D12*
%TO.C,J3*%
X162986300Y-49560100D03*
D13*
X160446300Y-49560100D03*
X157906300Y-49560100D03*
X155366300Y-49560100D03*
X152826300Y-49560100D03*
%TD*%
D18*
%TO.C,LD1*%
X70436200Y-49781200D03*
X70436200Y-52321200D03*
%TD*%
D12*
%TO.C,J5*%
X135046300Y-79659100D03*
D13*
X137586300Y-79659100D03*
X140126300Y-79659100D03*
X142666300Y-79659100D03*
X145206300Y-79659100D03*
X147746300Y-79659100D03*
X150286300Y-79659100D03*
X152826300Y-79659100D03*
X155366300Y-79659100D03*
X157906300Y-79659100D03*
X160446300Y-79659100D03*
X162986300Y-79659100D03*
X165526300Y-79659100D03*
X168066300Y-79659100D03*
X170606300Y-79659100D03*
X173146300Y-79659100D03*
%TD*%
D19*
%TO.C,C2*%
X180715200Y-71625200D03*
X178640200Y-71625200D03*
%TD*%
D20*
%TO.C,D2*%
X172671200Y-60458200D03*
X172671200Y-58408200D03*
%TD*%
D18*
%TO.C,SW2*%
X99011200Y-49781200D03*
X99011200Y-52321200D03*
%TD*%
D12*
%TO.C,J7*%
X75313800Y-79659100D03*
D13*
X77853800Y-79659100D03*
X80393800Y-79659100D03*
X82933800Y-79659100D03*
X85473800Y-79659100D03*
X88013800Y-79659100D03*
X90553800Y-79659100D03*
X93093800Y-79659100D03*
X95633800Y-79659100D03*
X98173800Y-79659100D03*
X100713800Y-79659100D03*
X103253800Y-79659100D03*
X105793800Y-79659100D03*
X108333800Y-79659100D03*
X110873800Y-79659100D03*
X113413800Y-79659100D03*
%TD*%
D18*
%TO.C,SW3*%
X118061200Y-52448200D03*
X118061200Y-49197000D03*
X120601200Y-52448200D03*
X120601200Y-49197000D03*
X123141200Y-52448200D03*
X123141200Y-49197000D03*
%TD*%
D10*
%TO.C,Q3*%
X164134200Y-74083200D03*
X166434200Y-74083200D03*
D11*
X166434200Y-67783200D03*
D10*
X168734200Y-74083200D03*
%TD*%
D21*
%TO.C,C3*%
X187530200Y-59433200D03*
X189943200Y-59433200D03*
%TD*%
D22*
%TO.C,R10*%
X147238300Y-74038200D03*
X147238300Y-72038200D03*
%TD*%
D23*
%TO.C,*%
X130507200Y-84833200D03*
%TD*%
D16*
%TO.C,R1*%
X178656200Y-68831200D03*
X180656200Y-68831200D03*
%TD*%
D19*
%TO.C,C7*%
X115437200Y-87246200D03*
X113362200Y-87246200D03*
%TD*%
D16*
%TO.C,R2*%
X178656200Y-66164200D03*
X180656200Y-66164200D03*
%TD*%
D24*
%TO.C,SW4*%
X121998200Y-71752200D03*
D18*
X121998200Y-74292200D03*
X121998200Y-76832200D03*
X121998200Y-79372200D03*
X121998200Y-81912200D03*
X121998200Y-84452200D03*
%TD*%
D25*
%TO.C,U2*%
X143805200Y-64102200D03*
X143155200Y-64102200D03*
X142505200Y-64102200D03*
X141855200Y-64102200D03*
X141205200Y-64102200D03*
X140555200Y-64102200D03*
X139905200Y-64102200D03*
X139255200Y-64102200D03*
X138605200Y-64102200D03*
X137955200Y-64102200D03*
X137305200Y-64102200D03*
X136655200Y-64102200D03*
X136005200Y-64102200D03*
X135355200Y-64102200D03*
X135355200Y-71752200D03*
X136005200Y-71752200D03*
X136655200Y-71752200D03*
X137305200Y-71752200D03*
X137955200Y-71752200D03*
X138605200Y-71752200D03*
X139255200Y-71752200D03*
X139905200Y-71752200D03*
X140555200Y-71752200D03*
X141205200Y-71752200D03*
X141855200Y-71752200D03*
X142505200Y-71752200D03*
X143155200Y-71752200D03*
X143805200Y-71752200D03*
%TD*%
D23*
%TO.C,*%
X130507200Y-51813200D03*
%TD*%
D18*
%TO.C,SW1*%
X110314200Y-52321200D03*
X110314200Y-49781200D03*
%TD*%
%TO.C,LD2*%
X77040200Y-49781200D03*
X77040200Y-52321200D03*
%TD*%
%TO.C,S1*%
X85168200Y-52321200D03*
X85168200Y-49781200D03*
%TD*%
D26*
%TO.C,C8*%
X104218200Y-49992200D03*
X104218200Y-52067200D03*
%TD*%
D23*
%TO.C,*%
X186680000Y-51840000D03*
%TD*%
D22*
%TO.C,R14*%
X171756800Y-74063600D03*
X171756800Y-72063600D03*
%TD*%
D27*
%TO.C,BT1*%
X122125200Y-54783200D03*
X122125200Y-65783200D03*
D28*
X112125200Y-57783200D03*
D29*
X112125200Y-62783200D03*
%TD*%
D12*
%TO.C,J6*%
X79664700Y-57198000D03*
D13*
X82204700Y-57198000D03*
X84744700Y-57198000D03*
X87284700Y-57198000D03*
X89824700Y-57198000D03*
X92364700Y-57198000D03*
X94904700Y-57198000D03*
X97444700Y-57198000D03*
X99984700Y-57198000D03*
X102524700Y-57198000D03*
X105064700Y-57198000D03*
%TD*%
D22*
%TO.C,R11*%
X161114200Y-74038200D03*
X161114200Y-72038200D03*
%TD*%
D21*
%TO.C,C1*%
X191594200Y-66037200D03*
X194007200Y-66037200D03*
%TD*%
D10*
%TO.C,U1*%
X176580200Y-62989200D03*
X178880200Y-62989200D03*
D11*
X178880200Y-56689200D03*
D10*
X181180200Y-62989200D03*
%TD*%
D23*
%TO.C,REF\u002A\u002A*%
X192864200Y-74673200D03*
%TD*%
D30*
%TO.C,R15*%
X89841200Y-49400200D03*
X92941200Y-49400200D03*
%TD*%
D22*
%TO.C,R7*%
X142572200Y-74927200D03*
%TD*%
%TO.C,R5*%
X138508200Y-74927200D03*
%TD*%
%TO.C,R6*%
X140540200Y-74927200D03*
%TD*%
%TO.C,R8*%
X144604200Y-74927200D03*
%TD*%
%TO.C,R4*%
X136476200Y-74927200D03*
%TD*%
M02*
