%TF.GenerationSoftware,KiCad,Pcbnew,8.0.1*%
%TF.CreationDate,2025-04-21T12:55:45-06:00*%
%TF.ProjectId,Project,50726f6a-6563-4742-9e6b-696361645f70,A*%
%TF.SameCoordinates,Original*%
%TF.FileFunction,Plated,1,2,PTH,Drill*%
%TF.FilePolarity,Positive*%
%FSLAX46Y46*%
G04 Gerber Fmt 4.6, Leading zero omitted, Abs format (unit mm)*
G04 Created by KiCad (PCBNEW 8.0.1) date 2025-04-21 12:55:45*
%MOMM*%
%LPD*%
G01*
G04 APERTURE LIST*
%TA.AperFunction,ViaDrill*%
%ADD10C,0.300000*%
%TD*%
%TA.AperFunction,ComponentDrill*%
%ADD11C,0.381000*%
%TD*%
%TA.AperFunction,ComponentDrill*%
%ADD12C,0.762000*%
%TD*%
%TA.AperFunction,ComponentDrill*%
%ADD13C,1.000000*%
%TD*%
%TA.AperFunction,ComponentDrill*%
%ADD14C,1.016000*%
%TD*%
%TA.AperFunction,ComponentDrill*%
%ADD15C,1.900000*%
%TD*%
%TA.AperFunction,ComponentDrill*%
%ADD16C,4.064000*%
%TD*%
G04 APERTURE END LIST*
D10*
X78910000Y-76920000D03*
X86160000Y-82830000D03*
X117130000Y-81570000D03*
X118061200Y-76197200D03*
X131109300Y-77287542D03*
X132000000Y-77670000D03*
X132918500Y-68985100D03*
X133014300Y-71658100D03*
X133609000Y-69566100D03*
X133750000Y-72240000D03*
X137455000Y-66205000D03*
X137790000Y-82540000D03*
X137955200Y-69593200D03*
X138647900Y-68945500D03*
X139300200Y-65783200D03*
X139590000Y-69780000D03*
X141500000Y-68960000D03*
X144477200Y-64106800D03*
X145859242Y-69090758D03*
X146712400Y-63222500D03*
X149050000Y-68520000D03*
X159620000Y-65620000D03*
X160270000Y-66480000D03*
X167730000Y-81550000D03*
X170994800Y-57401200D03*
D11*
%TO.C,R4*%
X136476200Y-74927200D03*
%TO.C,R5*%
X138508200Y-74927200D03*
%TO.C,R6*%
X140540200Y-74927200D03*
%TO.C,R7*%
X142572200Y-74927200D03*
%TO.C,R8*%
X144604200Y-74927200D03*
%TO.C,R10*%
X147238300Y-72038200D03*
%TO.C,R13*%
X159160300Y-74071100D03*
%TO.C,R11*%
X161114200Y-72038200D03*
%TO.C,R14*%
X171756800Y-72063600D03*
%TO.C,D2*%
X172671200Y-60458200D03*
%TO.C,U1*%
X176580200Y-62989200D03*
%TO.C,C2*%
X178640200Y-71625200D03*
%TO.C,R2*%
X178656200Y-66164200D03*
%TO.C,R1*%
X178656200Y-68831200D03*
%TO.C,C4*%
X180926200Y-51559200D03*
D12*
%TO.C,C3*%
X187530200Y-59433200D03*
X189943200Y-59433200D03*
%TO.C,C1*%
X191594200Y-66037200D03*
X194007200Y-66037200D03*
D13*
%TO.C,J7*%
X75313800Y-79659100D03*
%TO.C,U3*%
X77294200Y-66926200D03*
X77294200Y-87246200D03*
%TO.C,J7*%
X77853800Y-79659100D03*
%TO.C,J6*%
X79664700Y-57198000D03*
%TO.C,U3*%
X79834200Y-66926200D03*
X79834200Y-87246200D03*
%TO.C,J7*%
X80393800Y-79659100D03*
%TO.C,J6*%
X82204700Y-57198000D03*
%TO.C,U3*%
X82374200Y-66926200D03*
X82374200Y-87246200D03*
%TO.C,J7*%
X82933800Y-79659100D03*
%TO.C,J6*%
X84744700Y-57198000D03*
%TO.C,U3*%
X84914200Y-66926200D03*
X84914200Y-87246200D03*
%TO.C,J7*%
X85473800Y-79659100D03*
%TO.C,J6*%
X87284700Y-57198000D03*
%TO.C,U3*%
X87454200Y-66926200D03*
X87454200Y-87246200D03*
%TO.C,J7*%
X88013800Y-79659100D03*
%TO.C,J6*%
X89824700Y-57198000D03*
%TO.C,U3*%
X89994200Y-66926200D03*
X89994200Y-87246200D03*
%TO.C,J7*%
X90553800Y-79659100D03*
%TO.C,J6*%
X92364700Y-57198000D03*
%TO.C,U3*%
X92534200Y-66926200D03*
X92534200Y-87246200D03*
%TO.C,J7*%
X93093800Y-79659100D03*
%TO.C,J6*%
X94904700Y-57198000D03*
%TO.C,U3*%
X95074200Y-66926200D03*
X95074200Y-87246200D03*
%TO.C,J7*%
X95633800Y-79659100D03*
%TO.C,J6*%
X97444700Y-57198000D03*
%TO.C,U3*%
X97614200Y-66926200D03*
X97614200Y-87246200D03*
%TO.C,J7*%
X98173800Y-79659100D03*
%TO.C,J6*%
X99984700Y-57198000D03*
%TO.C,U3*%
X100154200Y-66926200D03*
X100154200Y-87246200D03*
%TO.C,J7*%
X100713800Y-79659100D03*
%TO.C,J6*%
X102524700Y-57198000D03*
%TO.C,U3*%
X102694200Y-66926200D03*
X102694200Y-87246200D03*
%TO.C,J7*%
X103253800Y-79659100D03*
%TO.C,J6*%
X105064700Y-57198000D03*
%TO.C,U3*%
X105234200Y-66926200D03*
X105234200Y-87246200D03*
%TO.C,J7*%
X105793800Y-79659100D03*
%TO.C,U3*%
X107774200Y-66926200D03*
X107774200Y-87246200D03*
%TO.C,J7*%
X108333800Y-79659100D03*
%TO.C,U3*%
X110314200Y-66926200D03*
X110314200Y-87246200D03*
%TO.C,J7*%
X110873800Y-79659100D03*
X113413800Y-79659100D03*
%TO.C,BT1*%
X122125200Y-54783200D03*
X122125200Y-65783200D03*
%TO.C,J5*%
X135046300Y-79659100D03*
%TO.C,J2*%
X136570300Y-49560100D03*
%TO.C,J1*%
X137365200Y-86611200D03*
%TO.C,J5*%
X137586300Y-79659100D03*
%TO.C,J2*%
X139110300Y-49560100D03*
%TO.C,J4*%
X139397200Y-57198000D03*
%TO.C,J1*%
X139905200Y-86611200D03*
%TO.C,J5*%
X140126300Y-79659100D03*
%TO.C,J2*%
X141650300Y-49560100D03*
%TO.C,J4*%
X141937200Y-57198000D03*
%TO.C,J1*%
X142445200Y-86611200D03*
%TO.C,J5*%
X142666300Y-79659100D03*
%TO.C,J2*%
X144190300Y-49560100D03*
%TO.C,J4*%
X144477200Y-57198000D03*
%TO.C,J1*%
X144985200Y-86611200D03*
%TO.C,J5*%
X145206300Y-79659100D03*
%TO.C,J2*%
X146730300Y-49560100D03*
%TO.C,J4*%
X147017200Y-57198000D03*
%TO.C,J1*%
X147525200Y-86611200D03*
%TO.C,J5*%
X147746300Y-79659100D03*
%TO.C,J4*%
X149557200Y-57198000D03*
%TO.C,J5*%
X150286300Y-79659100D03*
%TO.C,J4*%
X152097200Y-57198000D03*
%TO.C,J3*%
X152826300Y-49560100D03*
%TO.C,J5*%
X152826300Y-79659100D03*
%TO.C,J4*%
X154637200Y-57198000D03*
%TO.C,J3*%
X155366300Y-49560100D03*
%TO.C,J5*%
X155366300Y-79659100D03*
%TO.C,J4*%
X157177200Y-57198000D03*
%TO.C,J3*%
X157906300Y-49560100D03*
%TO.C,J5*%
X157906300Y-79659100D03*
%TO.C,J4*%
X159717200Y-57198000D03*
%TO.C,J3*%
X160446300Y-49560100D03*
%TO.C,J5*%
X160446300Y-79659100D03*
%TO.C,J4*%
X162257200Y-57198000D03*
%TO.C,J3*%
X162986300Y-49560100D03*
%TO.C,J5*%
X162986300Y-79659100D03*
%TO.C,J4*%
X164797200Y-57198000D03*
%TO.C,J5*%
X165526300Y-79659100D03*
X168066300Y-79659100D03*
X170606300Y-79659100D03*
X173146300Y-79659100D03*
D14*
%TO.C,LD1*%
X70436200Y-49781200D03*
X70436200Y-52321200D03*
%TO.C,LD2*%
X77040200Y-49781200D03*
X77040200Y-52321200D03*
%TO.C,S1*%
X85168200Y-49781200D03*
X85168200Y-52321200D03*
%TO.C,SW2*%
X99011200Y-49781200D03*
X99011200Y-52321200D03*
%TO.C,SW1*%
X110314200Y-49781200D03*
X110314200Y-52321200D03*
%TO.C,SW3*%
X118061200Y-49197000D03*
X118061200Y-52448200D03*
X120601200Y-49197000D03*
X120601200Y-52448200D03*
%TO.C,SW4*%
X121998200Y-71752200D03*
X121998200Y-74292200D03*
X121998200Y-76832200D03*
X121998200Y-79372200D03*
X121998200Y-81912200D03*
X121998200Y-84452200D03*
%TO.C,SW3*%
X123141200Y-49197000D03*
X123141200Y-52448200D03*
D15*
%TO.C,BT1*%
X112125200Y-57783200D03*
X112125200Y-62783200D03*
D16*
%TO.C,*%
X130507200Y-51813200D03*
X130507200Y-84833200D03*
X186680000Y-51840000D03*
%TO.C,REF\u002A\u002A*%
X192864200Y-74673200D03*
M02*
